<svg width="15" height="22" viewBox="0 0 15 22" fill="none" xmlns="http://www.w3.org/2000/svg">
<path d="M6.54244 13.814L4.87965 21.1814C4.82849 21.4202 4.70484 21.6163 4.50872 21.7698C4.3126 21.9233 4.08663 22 3.83081 22C3.48973 22 3.21686 21.8721 3.01221 21.6163C2.80756 21.3605 2.73934 21.0705 2.80756 20.7465L5.69826 6.08837C5.80058 5.5938 6.03081 5.22287 6.38895 4.97558C6.74709 4.72829 7.12229 4.60465 7.51453 4.60465C7.90678 4.60465 8.26919 4.68992 8.60174 4.86047C8.9343 5.03101 9.20291 5.28682 9.40756 5.62791L10.4308 7.26512C10.7378 7.75969 11.1343 8.20736 11.6203 8.60814C12.1064 9.00891 12.6649 9.3031 13.2959 9.4907V8.44186C13.2959 8.22016 13.3684 8.03682 13.5134 7.89186C13.6583 7.7469 13.8417 7.67442 14.0634 7.67442C14.2851 7.67442 14.4684 7.7469 14.6134 7.89186C14.7583 8.03682 14.8308 8.22016 14.8308 8.44186V21.2326C14.8308 21.4543 14.7583 21.6376 14.6134 21.7826C14.4684 21.9275 14.2851 22 14.0634 22C13.8417 22 13.6583 21.9275 13.5134 21.7826C13.3684 21.6376 13.2959 21.4543 13.2959 21.2326V11.614C12.4773 11.4264 11.7184 11.1279 11.0192 10.7186C10.32 10.3093 9.71454 9.8062 9.20291 9.2093L8.58895 12.2791L10.4308 14.0186C10.5331 14.1209 10.6099 14.236 10.661 14.364C10.7122 14.4919 10.7378 14.624 10.7378 14.7605V20.9767C10.7378 21.2667 10.6397 21.5097 10.4436 21.7058C10.2475 21.9019 10.0045 22 9.71454 22C9.42461 22 9.18159 21.9019 8.98547 21.7058C8.78934 21.5097 8.69128 21.2667 8.69128 20.9767V15.8605L6.54244 13.814ZM1.98895 11.7163L0.812209 11.486C0.539341 11.4349 0.326163 11.2942 0.172674 11.064C0.019186 10.8337 -0.0319767 10.5736 0.019186 10.2837L0.786628 6.26744C0.888954 5.6876 1.19593 5.24845 1.70756 4.95C2.21919 4.65155 2.77345 4.56202 3.37035 4.6814C3.66027 4.73256 3.87771 4.87326 4.02267 5.10349C4.16764 5.33372 4.21453 5.5938 4.16337 5.88372L3.19128 10.8977C3.14012 11.1876 2.99942 11.4093 2.76919 11.5628C2.53895 11.7163 2.27888 11.7674 1.98895 11.7163ZM9.20291 4.09302C8.64012 4.09302 8.15833 3.89264 7.75756 3.49186C7.35678 3.09109 7.1564 2.6093 7.1564 2.04651C7.1564 1.48372 7.35678 1.00194 7.75756 0.601163C8.15833 0.200388 8.64012 0 9.20291 0C9.7657 0 10.2475 0.200388 10.6483 0.601163C11.049 1.00194 11.2494 1.48372 11.2494 2.04651C11.2494 2.6093 11.049 3.09109 10.6483 3.49186C10.2475 3.89264 9.7657 4.09302 9.20291 4.09302Z" fill="#E3E3E3"/>
</svg>
